<svg width="113" height="113" viewBox="0 0 113 113" fill="none" xmlns="http://www.w3.org/2000/svg">
<path d="M56.5 65.0385C68.2892 65.0385 77.8462 55.4815 77.8462 43.6923C77.8462 31.9032 68.2892 22.3462 56.5 22.3462C44.7109 22.3462 35.1539 31.9032 35.1539 43.6923C35.1539 55.4815 44.7109 65.0385 56.5 65.0385Z" stroke="#1E1E1E" stroke-opacity="0.75" stroke-linecap="round" stroke-linejoin="round"/>
<path d="M20.0408 98.3384C23.8511 92.0842 29.2061 86.9152 35.5911 83.3285C41.9762 79.7417 49.1766 77.8578 56.5001 77.8578C63.8236 77.8578 71.0239 79.7417 77.409 83.3285C83.794 86.9152 89.1491 92.0842 92.9593 98.3384" stroke="#1E1E1E" stroke-opacity="0.75" stroke-linecap="round" stroke-linejoin="round"/>
<path d="M56.5 112C87.1518 112 112 87.1518 112 56.5C112 25.8482 87.1518 1 56.5 1C25.8482 1 1 25.8482 1 56.5C1 87.1518 25.8482 112 56.5 112Z" stroke="#1E1E1E" stroke-opacity="0.75" stroke-linecap="round" stroke-linejoin="round"/>
</svg>
